<?xml version="1.0" encoding="UTF-8"?>
<svg id="Layer_1" data-name="Layer 1" xmlns="http://www.w3.org/2000/svg" viewBox="0 0 1917.18 982.2">
  <defs>
    <style>
      .cls-1 {
        font-family: Antonio-Regular, Antonio;
        font-size: 400px;
        font-variation-settings: 'wght' 400;
      }

      .cls-1, .cls-2 {
        fill: #42210b;
      }
    </style>
  </defs>
  <path class="cls-2" d="M864.72,36.65c-27.24-13.24-42.26-27.05-74.5-17-25.3,7.8-33.4,33.8-34.8,37.9-.5,28.6.2,57.3-.3,85.9,70.2,112.5,108.3,177.6,115.9,306.5,2.1,35.2-2.1,218.2-120.5,315.3-10.2,8.4-24.3,18.8-42.3,31.2-79.8,55.1-97-145.5-169.7-145.5s-69.5,178.1-174.3,143.5c-41.6-13.7-63.7-48-81.9-75.6-43.5-66-52.2-101.9-57.1-116.1-79.1-231.3,92.3-451.8,101.4-462.6-.5-28.6-1.1-57.3-1.6-85.9-1.5-4.1-9.8-29.1-34.8-37.9-24.5-8.6-50.5,5.8-73.7,18.4-29.5,35.6-174.7,270.9-166.8,459.1,6.2,143.3,63.2,335.2,233.4,433.1,31.6,18.3,71,40.8,123.9,31.6,43.8-7.6,93.6-124.4,131.4-124.1,40.4.4,78.1,124.2,133.3,132.8,54.9,8.6,115-31,148.9-54.5,172.2-119.2,199.8-346.7,203.8-380.8,18.79-159.4-53.01-333.58-159.7-495.3h0ZM112.52,471.45h18.2v27.3h-18.2v-27.3ZM138.57,627.45l-8.3-26.01,17.34-5.53,8.3,26.01s-17.34,5.53-17.34,5.53ZM192.21,745.14l-13.65-23.64,15.76-9.1,13.65,23.64-15.76,9.1ZM278.18,842.89l-19.3-19.3,12.87-12.87,19.3,19.3-12.87,12.87ZM787.12,849.39l-11.99-13.69,20.54-17.98,11.99,13.69-20.54,17.98ZM875.19,750.32l-15.05-10.23,15.34-22.58,15.05,10.23-15.34,22.58ZM931.65,630.83l-17.26-5.77,8.66-25.89,17.26,5.77-8.66,25.89ZM954.87,499.28l-18.18-.89,1.33-27.27,18.18.89-1.33,27.27Z"/>
  <text class="cls-1" transform="translate(988.2 861.84)"><tspan x="0" y="0">allner</tspan></text>
</svg>