<svg width="122994" height="115560" viewBox="0 0 122994 115560" fill="none" xmlns="http://www.w3.org/2000/svg">
<path d="M99884.8 -23693.6C96015.6 -25672.3 93882.1 -27736.1 89302.7 -26234.2C85709.1 -25068.5 84558.6 -21182.9 84359.7 -20570.2C84288.7 -16296.1 84388.1 -12007 84317.1 -7732.91C94288.4 9079.63 99700.1 18808.5 100780 38071.9C101078 43332.4 100481 70680.8 83663.7 85191.9C82214.9 86447.2 80212.1 88001.4 77655.4 89854.5C66320.5 98089 63877.4 68110.3 53551 68110.3C43224.6 68110.3 43679.2 94726.4 28793.3 89555.7C22884.4 87508.3 19745.2 82382.3 17160.1 78257.6C10981.3 68394.3 9745.56 63029.2 9049.56 60907.1C-2185.89 26340.5 22159.9 -6612.08 23452.5 -8226.08C23381.5 -12500.2 23296.3 -16789.3 23225.3 -21063.4C23012.2 -21676.1 21833.2 -25412.2 18282.2 -26727.3C14802.2 -28012.6 11109.2 -25860.6 7813.8 -23977.6C3623.59 -18657.3 -17000.8 16507 -15878.6 44632.5C-14998 66048 -6901.65 94726.4 17273.7 109357C21762.2 112092 27358.6 115454 34872.6 114080C41094 112944 48167.7 95488.6 53536.8 95533.5C59275.3 95593.2 64630.2 114094 72470.9 115380C80268.9 116665 88805.6 110747 93620.8 107235C118080 89421.2 122001 55422.5 122569 50326.4C125238 26504.9 115039 474.596 99884.8 -23693.6ZM-6958.47 41285H-4373.32V45364.8H-6958.47V41285ZM-3258.3 64598.4L-4437.24 60711.3L-1974.25 59884.9L-795.308 63771.9L-3258.3 64598.4ZM4360.78 82186.5L2421.92 78653.7L4660.49 77293.7L6599.35 80826.6L4360.78 82186.5ZM16572.1 96794.8L13830.7 93910.5L15658.7 91987.1L18400.1 94871.4L16572.1 96794.8ZM88862.4 97766.2L87159.3 95720.3L90076.9 93033.2L91779.9 95079.1L88862.4 97766.2ZM101372 82960.7L99234.2 81431.8L101413 78057.4L103551 79586.2L101372 82960.7ZM109392 65103.5L106940 64241.2L108170 60372.1L110622 61234.4L109392 65103.5ZM112690 45444L110107 45311L110296 41235.7L112879 41368.7L112690 45444Z" fill="#BEBEBE"/>
</svg>
