<svg width="1080" height="966" viewBox="0 0 1080 966" fill="none" xmlns="http://www.w3.org/2000/svg">
<path d="M876.556 -199.354C842.492 -215.913 823.709 -233.184 783.393 -220.615C751.755 -210.86 741.626 -178.343 739.875 -173.216C739.25 -137.447 740.125 -101.554 739.5 -65.7851C827.286 74.9127 874.93 156.33 884.434 317.538C887.06 361.561 881.808 590.429 733.748 711.867C720.992 722.373 703.36 735.379 680.851 750.887C581.06 819.798 559.551 568.918 468.639 568.918C377.727 568.918 381.728 791.658 250.675 748.386C198.653 731.252 171.017 688.355 148.258 653.837C93.8603 571.294 82.9808 526.396 76.8533 508.637C-22.0623 219.362 192.276 -56.4052 203.655 -69.9122C203.03 -105.681 202.28 -141.574 201.654 -177.343C199.779 -182.47 189.399 -213.737 158.137 -224.742C127.499 -235.498 94.9857 -217.489 65.9738 -201.73C29.0837 -157.207 -152.491 137.07 -142.612 372.442C-134.859 551.659 -63.5793 791.658 149.258 914.097C188.774 936.984 238.044 965.123 304.196 953.617C358.969 944.112 421.245 798.037 468.514 798.412C519.035 798.912 566.179 953.742 635.207 964.498C703.86 975.253 779.016 925.728 821.409 896.338C1036.75 747.26 1071.26 462.738 1076.26 420.091C1099.76 220.738 1009.97 2.90045 876.556 -199.354ZM-64.0795 344.427H-41.3202V378.57H-64.0795V344.427ZM-31.5037 539.528L-41.8829 506.999L-20.199 500.083L-9.81976 532.612L-31.5037 539.528ZM35.5739 686.717L18.5044 657.151L38.2125 645.77L55.2819 675.336L35.5739 686.717ZM143.08 808.967L118.946 784.83L135.04 768.734L159.175 792.871L143.08 808.967ZM779.516 817.097L764.523 799.975L790.208 777.489L805.202 794.61L779.516 817.097ZM889.649 693.195L870.829 680.401L890.012 652.161L908.832 664.955L889.649 693.195ZM960.253 543.755L938.669 536.539L949.499 504.16L971.082 511.376L960.253 543.755ZM989.29 379.233L966.555 378.119L968.219 344.014L990.953 345.127L989.29 379.233Z" fill="#BEBEBE"/>
</svg>
