<?xml version="1.0" encoding="UTF-8"?>
<svg id="Layer_1" data-name="Layer 1" xmlns="http://www.w3.org/2000/svg" viewBox="0 0 1917.18 982.2">
  <defs>
    <style>
      .cls-1 {
        fill: #d9d9d9;
      }
    </style>
  </defs>
  <path class="cls-1" d="M864.72,36.65c-27.24-13.24-42.26-27.05-74.5-17-25.3,7.8-33.4,33.8-34.8,37.9-.5,28.6.2,57.3-.3,85.9,70.2,112.5,108.3,177.6,115.9,306.5,2.1,35.2-2.1,218.2-120.5,315.3-10.2,8.4-24.3,18.8-42.3,31.2-79.8,55.1-97-145.5-169.7-145.5s-69.5,178.1-174.3,143.5c-41.6-13.7-63.7-48-81.9-75.6-43.5-66-52.2-101.9-57.1-116.1-79.1-231.3,92.3-451.8,101.4-462.6-.5-28.6-1.1-57.3-1.6-85.9-1.5-4.1-9.8-29.1-34.8-37.9-24.5-8.6-50.5,5.8-73.7,18.4-29.5,35.6-174.7,270.9-166.8,459.1,6.2,143.3,63.2,335.2,233.4,433.1,31.6,18.3,71,40.8,123.9,31.6,43.8-7.6,93.6-124.4,131.4-124.1,40.4.4,78.1,124.2,133.3,132.8,54.9,8.6,115-31,148.9-54.5,172.2-119.2,199.8-346.7,203.8-380.8,18.79-159.4-53.01-333.58-159.7-495.3h0ZM112.52,471.45h18.2v27.3h-18.2v-27.3ZM138.57,627.45l-8.3-26.01,17.34-5.53,8.3,26.01s-17.34,5.53-17.34,5.53ZM192.21,745.14l-13.65-23.64,15.76-9.1,13.65,23.64-15.76,9.1ZM278.18,842.89l-19.3-19.3,12.87-12.87,19.3,19.3-12.87,12.87ZM787.12,849.39l-11.99-13.69,20.54-17.98,11.99,13.69-20.54,17.98ZM875.19,750.32l-15.05-10.23,15.34-22.58,15.05,10.23-15.34,22.58ZM931.65,630.83l-17.26-5.77,8.66-25.89,17.26,5.77-8.66,25.89ZM954.87,499.28l-18.18-.89,1.33-27.27,18.18.89-1.33,27.27Z"/>
  <g>
    <g>
      <path class="cls-1" d="M1099.67,864.38c-17.71,0-30.47-6.87-38.28-20.61-7.81-13.74-11.79-32.78-11.91-57.13v-28.52c0-12.89,2.21-23.6,6.64-32.13,4.42-8.53,10.67-15.66,18.75-21.39,8.07-5.73,17.58-10.9,28.52-15.53,10.94-4.62,22.92-9.54,35.94-14.75v-22.66c0-12.5-.39-22.62-1.17-30.37-.78-7.75-2.77-13.44-5.96-17.09-3.19-3.64-8.3-5.47-15.33-5.47s-12.08,1.83-15.53,5.47c-3.45,3.65-5.7,9.38-6.74,17.19-1.04,7.81-1.56,17.97-1.56,30.47v10.16h-39.84v-8.4c0-12.5.78-24.12,2.34-34.86s4.56-20.08,8.98-28.03c4.42-7.94,10.9-14.16,19.43-18.65,8.53-4.49,19.76-6.74,33.69-6.74s23.99,2.12,32.13,6.35c8.14,4.23,14.39,10.45,18.75,18.65,4.36,8.2,7.32,18.33,8.89,30.37,1.56,12.04,2.34,25.95,2.34,41.7v199.41h-40.23v-25.39c-1.17,3.91-3.45,8.04-6.84,12.4-3.39,4.36-7.81,8.04-13.28,11.04s-12.04,4.49-19.73,4.49ZM1111,831.96c7.03,0,13.09-2.25,18.16-6.74s8.46-8.95,10.16-13.38v-111.52c-10.03,4.43-18.26,8.43-24.71,12.01-6.45,3.58-11.46,7.32-15.04,11.23-3.58,3.91-6.09,8.59-7.52,14.06-1.43,5.47-2.15,12.37-2.15,20.7v27.15c0,16.54,1.43,28.42,4.3,35.64,2.86,7.23,8.46,10.84,16.8,10.84Z"/>
      <path class="cls-1" d="M1099.67,864.88c-17.82,0-30.85-7.02-38.72-20.86-7.82-13.75-11.85-33.05-11.98-57.37v-28.52c0-12.91,2.25-23.8,6.7-32.36,4.44-8.56,10.8-15.81,18.9-21.56,8.06-5.72,17.69-10.96,28.61-15.58,10.88-4.6,22.87-9.52,35.63-14.62v-22.32c0-12.42-.39-22.63-1.17-30.32-.77-7.6-2.73-13.26-5.84-16.81-3.08-3.52-8.11-5.3-14.96-5.3s-11.83,1.79-15.16,5.31c-3.36,3.55-5.58,9.24-6.61,16.91-1.03,7.74-1.56,17.97-1.56,30.4v10.66h-40.84v-8.9c0-12.47.79-24.22,2.35-34.94,1.56-10.75,4.61-20.24,9.04-28.2,4.45-7.99,11.06-14.33,19.64-18.85,8.56-4.51,19.97-6.8,33.92-6.8s24.18,2.15,32.36,6.4c8.19,4.26,14.57,10.61,18.96,18.86,4.37,8.22,7.38,18.49,8.94,30.54,1.56,12.01,2.35,26.06,2.35,41.76v199.91h-41.23v-23.03c-1.31,3.15-3.3,6.45-5.94,9.84-3.41,4.4-7.93,8.16-13.44,11.17-5.52,3.02-12.24,4.55-19.97,4.55ZM1116.86,598.26c7.14,0,12.43,1.9,15.71,5.64,3.25,3.71,5.29,9.55,6.08,17.37.78,7.73,1.17,17.96,1.17,30.42v23l-.31.12c-12.87,5.15-24.96,10.11-35.93,14.74-10.85,4.59-20.42,9.79-28.42,15.47-7.97,5.66-14.23,12.79-18.6,21.21-4.37,8.42-6.58,19.15-6.58,31.9v28.52c.13,24.14,4.11,43.28,11.85,56.88,7.68,13.5,20.41,20.35,37.85,20.35,7.56,0,14.12-1.49,19.49-4.43,5.38-2.95,9.8-6.61,13.13-10.9,3.33-4.29,5.6-8.41,6.75-12.24l.98-3.26v28.3h39.23v-198.91c0-15.66-.79-29.67-2.34-41.63-1.55-11.93-4.52-22.09-8.83-30.2-4.29-8.07-10.53-14.28-18.54-18.44-8.03-4.17-18.77-6.29-31.9-6.29-13.79,0-25.04,2.25-33.46,6.68-8.4,4.43-14.87,10.63-19.23,18.45-4.38,7.85-7.38,17.22-8.93,27.86-1.55,10.67-2.34,22.37-2.34,34.79v7.9h38.84v-9.66c0-12.48.53-22.75,1.57-30.54,1.05-7.88,3.36-13.76,6.87-17.46,3.53-3.73,8.88-5.62,15.89-5.62ZM1111,832.46c-8.52,0-14.33-3.75-17.26-11.16-2.87-7.25-4.33-19.3-4.33-35.83v-27.15c0-8.35.73-15.35,2.17-20.83,1.45-5.53,4.01-10.33,7.63-14.27,3.59-3.92,8.7-7.73,15.16-11.33,6.44-3.58,14.76-7.62,24.75-12.03l.7-.31-.03,112.47c-1.71,4.48-5.18,9.05-10.29,13.58-5.15,4.55-11.37,6.86-18.5,6.86ZM1138.82,701.09c-9.64,4.28-17.71,8.2-23.96,11.68-6.37,3.54-11.39,7.29-14.91,11.13-3.51,3.83-6,8.49-7.4,13.85-1.41,5.39-2.13,12.32-2.13,20.58v27.15c0,16.4,1.43,28.33,4.26,35.46,2.8,7.08,8.15,10.52,16.33,10.52,6.87,0,12.87-2.22,17.83-6.61,4.96-4.39,8.32-8.79,9.99-13.1v-110.66Z"/>
    </g>
    <g>
      <path class="cls-1" d="M1232.29,861.84v-347.46h40.04v347.46h-40.04Z"/>
      <path class="cls-1" d="M1272.83,862.34h-41.04v-348.46h41.04v348.46ZM1232.79,861.34h39.04v-346.46h-39.04v346.46Z"/>
    </g>
    <g>
      <path class="cls-1" d="M1330.53,861.84v-347.46h40.04v347.46h-40.04Z"/>
      <path class="cls-1" d="M1371.07,862.34h-41.04v-348.46h41.04v348.46ZM1331.03,861.34h39.04v-346.46h-39.04v346.46Z"/>
    </g>
    <g>
      <path class="cls-1" d="M1427.99,861.84v-292.97h40.04v31.05c2.6-9.11,8.17-17.19,16.7-24.22,8.53-7.03,18.72-10.55,30.57-10.55,14.71,0,26.17,5.21,34.38,15.62,8.2,10.42,12.3,26.24,12.3,47.46v233.59h-40.04v-233.4c0-10.42-2.34-17.97-7.03-22.66s-10.68-7.03-17.97-7.03c-5.34,0-10.22,1.17-14.65,3.52-4.43,2.34-7.91,5.99-10.45,10.94-2.54,4.95-3.81,11.33-3.81,19.14v229.49h-40.04Z"/>
      <path class="cls-1" d="M1562.48,862.34h-41.04v-233.9c0-10.23-2.32-17.73-6.88-22.3s-10.5-6.88-17.62-6.88c-5.23,0-10.08,1.16-14.41,3.46-4.31,2.28-7.76,5.89-10.24,10.72-2.49,4.86-3.75,11.22-3.75,18.91v229.99h-41.04v-293.97h41.04v28.41c2.93-7.97,8.26-15.18,15.88-21.46,8.58-7.07,18.97-10.66,30.88-10.66,14.81,0,26.5,5.32,34.77,15.82,8.24,10.46,12.41,26.53,12.41,47.77v234.09ZM1522.44,861.34h39.04v-233.09c0-21.01-4.1-36.87-12.2-47.15-8.07-10.24-19.5-15.43-33.98-15.43-11.68,0-21.85,3.51-30.25,10.43-8.41,6.93-13.97,15-16.54,23.97l-.98,3.43v-34.12h-39.04v291.97h39.04v-228.99c0-7.85,1.3-14.37,3.86-19.37,2.58-5.02,6.16-8.77,10.66-11.15,4.48-2.37,9.48-3.57,14.88-3.57,7.4,0,13.56,2.42,18.32,7.18s7.18,12.5,7.18,23.01v232.9Z"/>
    </g>
    <g>
      <path class="cls-1" d="M1677.8,865.36c-14.06,0-25.36-2.44-33.89-7.32-8.53-4.88-15.01-11.82-19.43-20.8-4.43-8.98-7.39-19.76-8.89-32.32-1.5-12.56-2.25-26.46-2.25-41.7v-103.52c0-13.8.98-26.46,2.93-37.99s5.34-21.48,10.16-29.88c4.82-8.4,11.52-14.91,20.12-19.53,8.59-4.62,19.53-6.93,32.81-6.93s24.22,2.34,32.42,7.03,14.42,11.3,18.65,19.82c4.23,8.53,7.06,18.69,8.5,30.47,1.43,11.79,2.15,24.71,2.15,38.77v55.27h-87.5v58.4c0,18.49,1.27,32.59,3.81,42.29,2.54,9.7,9.47,14.55,20.8,14.55,7.42,0,12.73-2.31,15.92-6.93,3.19-4.62,5.14-11.13,5.86-19.53.71-8.4,1.07-18.33,1.07-29.79v-23.63h39.26v12.5c0,15.23-.62,29.04-1.86,41.41-1.24,12.37-3.88,22.98-7.91,31.84-4.04,8.86-10.25,15.66-18.65,20.41s-19.76,7.13-34.08,7.13ZM1653.38,689.58h47.66v-37.3c0-11.72-.39-21.58-1.17-29.59s-2.67-14.06-5.66-18.16c-3-4.1-7.94-6.15-14.84-6.15-7.68,0-13.38,2.34-17.09,7.03s-6.12,11.17-7.23,19.43c-1.11,8.27-1.66,17.87-1.66,28.81v35.94Z"/>
      <path class="cls-1" d="M1677.8,865.86c-14.09,0-25.57-2.49-34.13-7.39-8.58-4.91-15.19-11.98-19.63-21.01-4.43-9-7.44-19.93-8.93-32.49-1.49-12.52-2.25-26.57-2.25-41.76v-103.52c0-13.77.99-26.57,2.94-38.07,1.95-11.53,5.39-21.64,10.22-30.05,4.84-8.44,11.67-15.07,20.31-19.72,8.63-4.64,19.75-6.99,33.05-6.99s24.43,2.39,32.67,7.1c8.25,4.71,14.59,11.46,18.85,20.04,4.23,8.54,7.11,18.85,8.54,30.63,1.43,11.76,2.15,24.82,2.15,38.83v55.77h-87.5v57.9c0,18.36,1.28,32.55,3.79,42.16,2.5,9.54,9.14,14.18,20.32,14.18,7.21,0,12.43-2.26,15.51-6.72,3.12-4.53,5.07-11.02,5.77-19.29.71-8.37,1.07-18.38,1.07-29.74v-24.13h40.26v13c0,15.17-.62,29.12-1.86,41.46-1.24,12.37-3.91,23.13-7.95,31.99-4.06,8.91-10.41,15.86-18.86,20.64-8.44,4.77-19.99,7.19-34.33,7.19ZM1679.36,565.86c-13.13,0-24.09,2.31-32.58,6.87-8.47,4.56-15.18,11.07-19.92,19.34-4.77,8.31-8.16,18.3-10.1,29.72-1.94,11.44-2.92,24.19-2.92,37.9v103.52c0,15.15.75,29.16,2.24,41.64,1.48,12.45,4.46,23.27,8.84,32.16,4.36,8.85,10.83,15.78,19.23,20.59,8.41,4.82,19.73,7.26,33.64,7.26s25.55-2.38,33.84-7.06c8.27-4.68,14.47-11.47,18.44-20.18,3.99-8.76,6.64-19.42,7.87-31.68,1.23-12.3,1.85-26.22,1.85-41.36v-12h-38.26v23.13c0,11.39-.36,21.43-1.08,29.83-.72,8.45-2.72,15.1-5.95,19.77-3.28,4.74-8.77,7.15-16.33,7.15-11.53,0-18.69-5.02-21.28-14.92-2.54-9.69-3.83-23.96-3.83-42.41v-58.9h87.5v-54.77c0-13.97-.72-26.99-2.14-38.71-1.42-11.67-4.26-21.87-8.45-30.31-4.17-8.4-10.38-15-18.45-19.61-8.09-4.62-18.91-6.97-32.17-6.97ZM1701.54,690.08h-48.66v-36.44c0-10.91.56-20.63,1.67-28.88,1.11-8.32,3.58-14.94,7.33-19.68,3.79-4.79,9.67-7.22,17.48-7.22,7.04,0,12.17,2.14,15.25,6.36,3.04,4.16,4.97,10.35,5.76,18.41.78,7.99,1.17,17.96,1.17,29.64v37.8ZM1653.88,689.08h46.66v-36.8c0-11.65-.39-21.59-1.17-29.54-.77-7.88-2.64-13.91-5.57-17.92-2.88-3.95-7.74-5.95-14.44-5.95-7.49,0-13.1,2.3-16.7,6.84-3.64,4.6-6.04,11.05-7.12,19.19-1.1,8.21-1.66,17.88-1.66,28.74v35.44Z"/>
    </g>
    <g>
      <path class="cls-1" d="M1789.91,861.84v-292.97h40.23v32.62c3.38-11.33,9.28-20.18,17.68-26.56,8.4-6.38,19.11-9.57,32.13-9.57.26,0,.42,1.73.49,5.18.06,3.45.1,7.39.1,11.82v16.99c-6.25,0-12.5.75-18.75,2.25-6.25,1.5-12.11,4.04-17.58,7.62-5.47,3.58-10.16,8.43-14.06,14.55v238.09h-40.23Z"/>
      <path class="cls-1" d="M1830.64,862.34h-41.23v-293.97h41.23v29.96c3.52-9.97,9.19-17.97,16.87-23.81,8.45-6.42,19.36-9.67,32.43-9.67.61,0,.88.23.99,5.67.06,3.47.1,7.45.1,11.83v17.49h-.5c-6.17,0-12.44.75-18.63,2.23-6.16,1.48-12.03,4.02-17.42,7.55-5.35,3.5-10,8.31-13.84,14.28v238.44ZM1790.41,861.34h39.23v-237.73l.08-.12c3.92-6.15,8.71-11.09,14.21-14.7,5.49-3.6,11.46-6.18,17.74-7.69,6.1-1.46,12.28-2.22,18.37-2.26v-16.49c0-4.37-.03-8.34-.1-11.81-.06-3.18-.2-4.3-.28-4.68-12.71.05-23.32,3.23-31.53,9.47-8.27,6.29-14.16,15.14-17.5,26.31l-.98,3.28v-35.54h-39.23v291.97Z"/>
    </g>
  </g>
</svg>