<?xml version="1.0" encoding="UTF-8"?>
<svg id="Layer_1" xmlns="http://www.w3.org/2000/svg" version="1.1" viewBox="0 0 1917.2 982.2">
  <!-- Generator: Adobe Illustrator 29.8.4, SVG Export Plug-In . SVG Version: 2.1.1 Build 6)  -->
  <defs>
    <style>
      .st0 {
        fill: #42210b;
      }

      .st1 {
        fill: #d9d9d9;
      }
    </style>
  </defs>
  <path class="st0" d="M864.7,36.7c-27.2-13.2-42.3-27-74.5-17-25.3,7.8-33.4,33.8-34.8,37.9-.5,28.6.2,57.3-.3,85.9,70.2,112.5,108.3,177.6,115.9,306.5,2.1,35.2-2.1,218.2-120.5,315.3-10.2,8.4-24.3,18.8-42.3,31.2-79.8,55.1-97-145.5-169.7-145.5s-69.5,178.1-174.3,143.5c-41.6-13.7-63.7-48-81.9-75.6-43.5-66-52.2-101.9-57.1-116.1-79.1-231.3,92.3-451.8,101.4-462.6-.5-28.6-1.1-57.3-1.6-85.9-1.5-4.1-9.8-29.1-34.8-37.9-24.5-8.6-50.5,5.8-73.7,18.4-29.5,35.6-174.7,270.9-166.8,459.1,6.2,143.3,63.2,335.2,233.4,433.1,31.6,18.3,71,40.8,123.9,31.6,43.8-7.6,93.6-124.4,131.4-124.1,40.4.4,78.1,124.2,133.3,132.8,54.9,8.6,115-31,148.9-54.5,172.2-119.2,199.8-346.7,203.8-380.8,18.8-159.4-53-333.6-159.7-495.3h0ZM112.5,471.5h18.2v27.3h-18.2v-27.3ZM138.6,627.5l-8.3-26,17.3-5.5,8.3,26s-17.3,5.5-17.3,5.5ZM192.2,745.1l-13.6-23.6,15.8-9.1,13.6,23.6-15.8,9.1ZM278.2,842.9l-19.3-19.3,12.9-12.9,19.3,19.3-12.9,12.9ZM787.1,849.4l-12-13.7,20.5-18,12,13.7-20.5,18ZM875.2,750.3l-15-10.2,15.3-22.6,15,10.2-15.3,22.6ZM931.6,630.8l-17.3-5.8,8.7-25.9,17.3,5.8-8.7,25.9ZM954.9,499.3l-18.2-.9,1.3-27.3,18.2.9-1.3,27.3Z"/>
  <g>
    <g>
      <path class="st0" d="M1099.7,864.4c-17.7,0-30.5-6.9-38.3-20.6-7.8-13.7-11.8-32.8-11.9-57.1v-28.5c0-12.9,2.2-23.6,6.6-32.1,4.4-8.5,10.7-15.7,18.8-21.4,8.1-5.7,17.6-10.9,28.5-15.5,10.9-4.6,22.9-9.5,35.9-14.7v-22.7c0-12.5-.4-22.6-1.2-30.4-.8-7.7-2.8-13.4-6-17.1-3.2-3.6-8.3-5.5-15.3-5.5s-12.1,1.8-15.5,5.5c-3.5,3.6-5.7,9.4-6.7,17.2-1,7.8-1.6,18-1.6,30.5v10.2h-39.8v-8.4c0-12.5.8-24.1,2.3-34.9s4.6-20.1,9-28c4.4-7.9,10.9-14.2,19.4-18.7,8.5-4.5,19.8-6.7,33.7-6.7s24,2.1,32.1,6.3c8.1,4.2,14.4,10.4,18.8,18.7,4.4,8.2,7.3,18.3,8.9,30.4,1.6,12,2.3,25.9,2.3,41.7v199.4h-40.2v-25.4c-1.2,3.9-3.5,8-6.8,12.4-3.4,4.4-7.8,8-13.3,11s-12,4.5-19.7,4.5ZM1111,832c7,0,13.1-2.2,18.2-6.7s8.5-9,10.2-13.4v-111.5c-10,4.4-18.3,8.4-24.7,12-6.4,3.6-11.5,7.3-15,11.2-3.6,3.9-6.1,8.6-7.5,14.1-1.4,5.5-2.1,12.4-2.1,20.7v27.1c0,16.5,1.4,28.4,4.3,35.6,2.9,7.2,8.5,10.8,16.8,10.8Z"/>
      <path class="st1" d="M1099.7,864.9c-17.8,0-30.8-7-38.7-20.9-7.8-13.8-11.9-33.1-12-57.4v-28.5c0-12.9,2.3-23.8,6.7-32.4,4.4-8.6,10.8-15.8,18.9-21.6,8.1-5.7,17.7-11,28.6-15.6,10.9-4.6,22.9-9.5,35.6-14.6v-22.3c0-12.4-.4-22.6-1.2-30.3-.8-7.6-2.7-13.3-5.8-16.8-3.1-3.5-8.1-5.3-15-5.3s-11.8,1.8-15.2,5.3c-3.4,3.6-5.6,9.2-6.6,16.9-1,7.7-1.6,18-1.6,30.4v10.7h-40.8v-8.9c0-12.5.8-24.2,2.3-34.9,1.6-10.8,4.6-20.2,9-28.2,4.5-8,11.1-14.3,19.6-18.9,8.6-4.5,20-6.8,33.9-6.8s24.2,2.2,32.4,6.4c8.2,4.3,14.6,10.6,19,18.9,4.4,8.2,7.4,18.5,8.9,30.5,1.6,12,2.3,26.1,2.3,41.8v199.9h-41.2v-23c-1.3,3.1-3.3,6.4-5.9,9.8-3.4,4.4-7.9,8.2-13.4,11.2-5.5,3-12.2,4.6-20,4.6ZM1116.9,598.3c7.1,0,12.4,1.9,15.7,5.6,3.2,3.7,5.3,9.6,6.1,17.4.8,7.7,1.2,18,1.2,30.4v23h-.3c-12.9,5.3-25,10.2-35.9,14.9-10.9,4.6-20.4,9.8-28.4,15.5-8,5.7-14.2,12.8-18.6,21.2-4.4,8.4-6.6,19.1-6.6,31.9v28.5c.1,24.1,4.1,43.3,11.8,56.9,7.7,13.5,20.4,20.4,37.8,20.4s14.1-1.5,19.5-4.4c5.4-2.9,9.8-6.6,13.1-10.9,3.3-4.3,5.6-8.4,6.8-12.2l1-3.3v28.3h39.2v-198.9c0-15.7-.8-29.7-2.3-41.6-1.5-11.9-4.5-22.1-8.8-30.2-4.3-8.1-10.5-14.3-18.5-18.4-8-4.2-18.8-6.3-31.9-6.3s-25,2.2-33.5,6.7c-8.4,4.4-14.9,10.6-19.2,18.5-4.4,7.9-7.4,17.2-8.9,27.9-1.6,10.7-2.3,22.4-2.3,34.8v7.9h38.8v-9.7c0-12.5.5-22.8,1.6-30.5,1-7.9,3.4-13.8,6.9-17.5,3.5-3.7,8.9-5.6,15.9-5.6ZM1111,832.5c-8.5,0-14.3-3.8-17.3-11.2-2.9-7.2-4.3-19.3-4.3-35.8v-27.1c0-8.3.7-15.4,2.2-20.8,1.4-5.5,4-10.3,7.6-14.3,3.6-3.9,8.7-7.7,15.2-11.3,6.4-3.6,14.8-7.6,24.7-12l.7-.3v112.5c-1.7,4.5-5.2,9-10.3,13.6-5.1,4.6-11.4,6.9-18.5,6.9ZM1138.8,701.1c-9.6,4.3-17.7,8.2-24,11.7-6.4,3.5-11.4,7.3-14.9,11.1-3.5,3.8-6,8.5-7.4,13.9-1.4,5.4-2.1,12.3-2.1,20.6v27.1c0,16.4,1.4,28.3,4.3,35.5,2.8,7.1,8.1,10.5,16.3,10.5s12.9-2.2,17.8-6.6c5-4.4,8.3-8.8,10-13.1v-110.7Z"/>
    </g>
    <g>
      <path class="st0" d="M1232.3,861.8v-347.5h40v347.5h-40Z"/>
      <path class="st1" d="M1272.8,862.3h-41v-348.5h41v348.5ZM1232.8,861.3h39v-346.5h-39v346.5Z"/>
    </g>
    <g>
      <path class="st0" d="M1330.5,861.8v-347.5h40v347.5h-40Z"/>
      <path class="st1" d="M1371.1,862.3h-41v-348.5h41v348.5ZM1331,861.3h39v-346.5h-39v346.5Z"/>
    </g>
    <g>
      <path class="st0" d="M1428,861.8v-293h40v31.1c2.6-9.1,8.2-17.2,16.7-24.2,8.5-7,18.7-10.5,30.6-10.5s26.2,5.2,34.4,15.6c8.2,10.4,12.3,26.2,12.3,47.5v233.6h-40v-233.4c0-10.4-2.3-18-7-22.7s-10.7-7-18-7-10.2,1.2-14.6,3.5c-4.4,2.3-7.9,6-10.4,10.9-2.5,5-3.8,11.3-3.8,19.1v229.5h-40Z"/>
      <path class="st1" d="M1562.5,862.3h-41v-233.9c0-10.2-2.3-17.7-6.9-22.3s-10.5-6.9-17.6-6.9-10.1,1.2-14.4,3.5c-4.3,2.3-7.8,5.9-10.2,10.7-2.5,4.9-3.8,11.2-3.8,18.9v230h-41v-294h41v28.4c2.9-8,8.3-15.2,15.9-21.5,8.6-7.1,19-10.7,30.9-10.7s26.5,5.3,34.8,15.8c8.2,10.5,12.4,26.5,12.4,47.8v234.1ZM1522.4,861.3h39v-233.1c0-21-4.1-36.9-12.2-47.2-8.1-10.2-19.5-15.4-34-15.4s-21.9,3.5-30.2,10.4c-8.4,6.9-14,15-16.5,24l-1,3.4v-34.1h-39v292h39v-229c0-7.9,1.3-14.4,3.9-19.4,2.6-5,6.2-8.8,10.7-11.2,4.5-2.4,9.5-3.6,14.9-3.6s13.6,2.4,18.3,7.2,7.2,12.5,7.2,23v232.9Z"/>
    </g>
    <g>
      <path class="st0" d="M1677.8,865.4c-14.1,0-25.4-2.4-33.9-7.3-8.5-4.9-15-11.8-19.4-20.8-4.4-9-7.4-19.8-8.9-32.3-1.5-12.6-2.2-26.5-2.2-41.7v-103.5c0-13.8,1-26.5,2.9-38s5.3-21.5,10.2-29.9c4.8-8.4,11.5-14.9,20.1-19.5,8.6-4.6,19.5-6.9,32.8-6.9s24.2,2.3,32.4,7,14.4,11.3,18.7,19.8c4.2,8.5,7.1,18.7,8.5,30.5,1.4,11.8,2.1,24.7,2.1,38.8v55.3h-87.5v58.4c0,18.5,1.3,32.6,3.8,42.3,2.5,9.7,9.5,14.6,20.8,14.6s12.7-2.3,15.9-6.9c3.2-4.6,5.1-11.1,5.9-19.5.7-8.4,1.1-18.3,1.1-29.8v-23.6h39.3v12.5c0,15.2-.6,29-1.9,41.4-1.2,12.4-3.9,23-7.9,31.8-4,8.9-10.3,15.7-18.7,20.4s-19.8,7.1-34.1,7.1ZM1653.4,689.6h47.7v-37.3c0-11.7-.4-21.6-1.2-29.6s-2.7-14.1-5.7-18.2c-3-4.1-7.9-6.2-14.8-6.2s-13.4,2.3-17.1,7-6.1,11.2-7.2,19.4c-1.1,8.3-1.7,17.9-1.7,28.8v35.9Z"/>
      <path class="st1" d="M1677.8,865.9c-14.1,0-25.6-2.5-34.1-7.4-8.6-4.9-15.2-12-19.6-21-4.4-9-7.4-19.9-8.9-32.5-1.5-12.5-2.2-26.6-2.2-41.8v-103.5c0-13.8,1-26.6,2.9-38.1,2-11.5,5.4-21.6,10.2-30,4.8-8.4,11.7-15.1,20.3-19.7,8.6-4.6,19.8-7,33-7s24.4,2.4,32.7,7.1c8.2,4.7,14.6,11.5,18.9,20,4.2,8.5,7.1,18.8,8.5,30.6,1.4,11.8,2.2,24.8,2.2,38.8v55.8h-87.5v57.9c0,18.4,1.3,32.5,3.8,42.2,2.5,9.5,9.1,14.2,20.3,14.2s12.4-2.3,15.5-6.7c3.1-4.5,5.1-11,5.8-19.3.7-8.4,1.1-18.4,1.1-29.7v-24.1h40.3v13c0,15.2-.6,29.1-1.9,41.5-1.2,12.4-3.9,23.1-8,32-4.1,8.9-10.4,15.9-18.9,20.6-8.4,4.8-20,7.2-34.3,7.2ZM1679.4,565.9c-13.1,0-24.1,2.3-32.6,6.9-8.5,4.6-15.2,11.1-19.9,19.3-4.8,8.3-8.2,18.3-10.1,29.7-1.9,11.4-2.9,24.2-2.9,37.9v103.5c0,15.1.8,29.2,2.2,41.6,1.5,12.4,4.5,23.3,8.8,32.2,4.4,8.8,10.8,15.8,19.2,20.6,8.4,4.8,19.7,7.3,33.6,7.3s25.6-2.4,33.8-7.1c8.3-4.7,14.5-11.5,18.4-20.2,4-8.8,6.6-19.4,7.9-31.7,1.2-12.3,1.9-26.2,1.9-41.4v-12h-38.3v23.1c0,11.4-.4,21.4-1.1,29.8-.7,8.5-2.7,15.1-5.9,19.8-3.3,4.7-8.8,7.1-16.3,7.1-11.5,0-18.7-5-21.3-14.9-2.5-9.7-3.8-24-3.8-42.4v-58.9h87.5v-54.8c0-14-.7-27-2.1-38.7-1.4-11.7-4.3-21.9-8.4-30.3-4.2-8.4-10.4-15-18.5-19.6-8.1-4.6-18.9-7-32.2-7ZM1701.5,690.1h-48.7v-36.4c0-10.9.6-20.6,1.7-28.9,1.1-8.3,3.6-14.9,7.3-19.7,3.8-4.8,9.7-7.2,17.5-7.2s12.2,2.1,15.2,6.4c3,4.2,5,10.4,5.8,18.4.8,8,1.2,18,1.2,29.6v37.8ZM1653.9,689.1h46.7v-36.8c0-11.6-.4-21.6-1.2-29.5-.8-7.9-2.6-13.9-5.6-17.9-2.9-3.9-7.7-5.9-14.4-5.9s-13.1,2.3-16.7,6.8c-3.6,4.6-6,11.1-7.1,19.2-1.1,8.2-1.7,17.9-1.7,28.7v35.4Z"/>
    </g>
    <g>
      <path class="st0" d="M1789.9,861.8v-293h40.2v32.6c3.4-11.3,9.3-20.2,17.7-26.6,8.4-6.4,19.1-9.6,32.1-9.6s.4,1.7.5,5.2c0,3.5,0,7.4,0,11.8v17c-6.2,0-12.5.8-18.8,2.2-6.2,1.5-12.1,4-17.6,7.6-5.5,3.6-10.2,8.4-14.1,14.6v238.1h-40.2Z"/>
      <path class="st1" d="M1830.6,862.3h-41.2v-294h41.2v30c3.5-10,9.2-18,16.9-23.8,8.5-6.4,19.4-9.7,32.4-9.7s.9.2,1,5.7c0,3.5,0,7.5,0,11.8v17.5h-.5c-6.2,0-12.4.8-18.6,2.2-6.2,1.5-12,4-17.4,7.5-5.3,3.5-10,8.3-13.8,14.3v238.4ZM1790.4,861.3h39.2v-237.7h0c3.9-6.3,8.7-11.2,14.2-14.8,5.5-3.6,11.5-6.2,17.7-7.7,6.1-1.5,12.3-2.2,18.4-2.3v-16.5c0-4.4,0-8.3,0-11.8,0-3.2-.2-4.3-.3-4.7-12.7,0-23.3,3.2-31.5,9.5-8.3,6.3-14.2,15.1-17.5,26.3l-1,3.3v-35.5h-39.2v292Z"/>
    </g>
  </g>
</svg>