<svg width="42" height="42" viewBox="0 0 42 42" fill="none" xmlns="http://www.w3.org/2000/svg">
<path d="M20.8229 0C9.3125 0 0 9.32292 0 20.8333C0 32.3438 9.3125 41.6667 20.8229 41.6667C32.3333 41.6667 41.6667 32.3438 41.6667 20.8333C41.6667 9.32292 32.3333 0 20.8229 0ZM35.25 12.5H29.1042C28.4271 9.89583 27.4792 7.39583 26.2292 5.08333C30.0625 6.39583 33.25 9.05208 35.25 12.5ZM20.8333 4.23958C22.5729 6.73958 23.9271 9.52083 24.8125 12.5H16.8542C17.7396 9.52083 19.0938 6.73958 20.8333 4.23958ZM4.70833 25C4.36458 23.6667 4.16667 22.2708 4.16667 20.8333C4.16667 19.3958 4.36458 18 4.70833 16.6667H11.7396C11.5729 18.0312 11.4583 19.4167 11.4583 20.8333C11.4583 22.25 11.5729 23.6354 11.75 25H4.70833ZM6.40625 29.1667H12.5521C13.2292 31.7708 14.1771 34.2708 15.4271 36.5938C11.5937 35.2812 8.40625 32.6146 6.40625 29.1667ZM12.5521 12.5H6.40625C8.40625 9.05208 11.5937 6.38542 15.4271 5.07292C14.1771 7.39583 13.2292 9.89583 12.5521 12.5ZM20.8333 37.4271C19.1042 34.9271 17.75 32.1458 16.8542 29.1667H24.8125C23.9167 32.1458 22.5625 34.9271 20.8333 37.4271ZM25.7083 25H15.9583C15.7604 23.6354 15.625 22.25 15.625 20.8333C15.625 19.4167 15.7604 18.0312 15.9583 16.6667H25.7083C25.9062 18.0312 26.0417 19.4167 26.0417 20.8333C26.0417 22.25 25.9062 23.6354 25.7083 25ZM26.2396 36.5833C27.4896 34.2604 28.4375 31.7708 29.1146 29.1667H35.2604C33.25 32.6146 30.0625 35.2708 26.2396 36.5833ZM29.9167 25C30.0833 23.6354 30.2083 22.25 30.2083 20.8333C30.2083 19.4167 30.0938 18.0312 29.9167 16.6667H36.9479C37.2917 18 37.5 19.3958 37.5 20.8333C37.5 22.2708 37.3021 23.6667 36.9479 25H29.9167Z" fill="#42210B"/>
</svg>
